<svg xmlns="http://www.w3.org/2000/svg" xmlns:xlink="http://www.w3.org/1999/xlink" width="500" zoomAndPan="magnify" viewBox="0 0 375 374.999991" height="500" preserveAspectRatio="xMidYMid meet" version="1.0"><defs><g/><clipPath id="a0cdb37cd7"><path d="M 13.445312 123 L 129.695312 123 L 129.695312 217.453125 L 13.445312 217.453125 Z M 13.445312 123 " clip-rule="nonzero"/></clipPath><clipPath id="7c04b9150d"><path d="M 115.65625 174.996094 C 115.65625 171.109375 118.800781 167.980469 122.683594 167.980469 C 126.570312 167.980469 129.695312 171.125 129.695312 174.996094 C 129.695312 178.882812 126.550781 182.007812 122.683594 182.007812 C 121.476562 182.007812 120.320312 181.703125 119.324219 181.160156 L 114.265625 188.605469 C 115.457031 189.65625 116.21875 191.191406 116.21875 192.929688 C 116.21875 196.089844 113.652344 198.660156 110.488281 198.660156 C 107.328125 198.660156 104.761719 196.089844 104.761719 192.929688 C 104.761719 190.757812 105.972656 188.859375 107.761719 187.902344 L 106.332031 184.285156 C 106.007812 184.359375 105.664062 184.394531 105.320312 184.394531 C 102.808594 184.394531 100.785156 182.351562 100.785156 179.859375 C 100.785156 177.34375 102.828125 175.300781 105.320312 175.300781 C 105.738281 175.300781 106.152344 175.355469 106.53125 175.464844 L 109.476562 168.921875 C 108.753906 168.359375 108.285156 167.492188 108.285156 166.515625 C 108.285156 164.835938 109.640625 163.480469 111.320312 163.480469 C 112.0625 163.480469 112.730469 163.734375 113.253906 164.183594 L 118.53125 160.171875 C 118.148438 159.484375 117.933594 158.671875 117.933594 157.820312 C 117.933594 156.414062 118.546875 155.128906 119.503906 154.242188 L 116.253906 149.453125 C 115.640625 149.742188 114.953125 149.90625 114.230469 149.90625 C 112.53125 149.90625 111.050781 149 110.238281 147.664062 L 105.285156 149.742188 C 105.285156 149.8125 105.304688 149.886719 105.304688 149.941406 C 105.304688 151.078125 104.472656 152.019531 103.386719 152.199219 L 102.71875 157.007812 C 104.382812 157.53125 105.574219 159.085938 105.574219 160.914062 C 105.574219 163.171875 103.730469 165.015625 101.472656 165.015625 C 99.957031 165.015625 98.636719 164.183594 97.914062 162.957031 L 92.042969 165.125 C 92.042969 165.144531 92.042969 165.160156 92.042969 165.199219 C 92.042969 166.410156 91.066406 167.386719 89.855469 167.386719 C 89.730469 167.386719 89.585938 167.367188 89.457031 167.347656 L 86.476562 172.773438 C 86.839844 173.097656 87.144531 173.496094 87.34375 173.945312 L 95.582031 172.210938 C 95.710938 171.125 96.632812 170.277344 97.75 170.277344 C 98.960938 170.277344 99.9375 171.253906 99.9375 172.464844 C 99.9375 173.585938 99.089844 174.507812 98.003906 174.632812 L 95.582031 186.203125 C 98.148438 187.035156 99.992188 189.4375 99.992188 192.277344 C 99.992188 195.800781 97.136719 198.675781 93.597656 198.675781 C 93.488281 198.675781 93.378906 198.675781 93.269531 198.675781 L 92.3125 204.605469 C 93.179688 205.003906 93.792969 205.890625 93.792969 206.917969 C 93.792969 208.078125 93.035156 209.035156 91.988281 209.359375 L 92.078125 213.84375 C 92.746094 214.097656 93.234375 214.765625 93.234375 215.523438 C 93.234375 216.519531 92.421875 217.332031 91.425781 217.332031 C 90.433594 217.332031 89.621094 216.519531 89.621094 215.523438 C 89.621094 215.34375 89.65625 215.164062 89.710938 214.980469 L 86.550781 212.34375 C 86.152344 212.613281 85.664062 212.777344 85.121094 212.777344 C 83.730469 212.777344 82.609375 211.65625 82.609375 210.265625 C 82.609375 209.269531 83.1875 208.417969 84.019531 208.003906 L 83.476562 205.003906 C 83.441406 205.003906 83.386719 205.003906 83.351562 205.003906 C 80.820312 205.003906 78.761719 202.941406 78.761719 200.410156 C 78.761719 197.882812 80.820312 195.820312 83.351562 195.820312 C 84.5625 195.820312 85.644531 196.289062 86.457031 197.050781 L 88.210938 195.65625 C 87.578125 194.664062 87.21875 193.507812 87.21875 192.242188 C 87.21875 191.03125 87.5625 189.890625 88.15625 188.914062 L 83.675781 185.480469 C 83.332031 185.714844 82.917969 185.859375 82.464844 185.859375 C 81.976562 185.859375 81.527344 185.695312 81.164062 185.425781 L 78.328125 187.394531 C 78.835938 188.316406 79.105469 189.367188 79.105469 190.488281 C 79.105469 194.066406 76.214844 196.957031 72.636719 196.957031 C 69.601562 196.957031 67.070312 194.878906 66.367188 192.058594 L 61.523438 192.730469 C 61.46875 195.023438 59.589844 196.867188 57.277344 196.867188 C 54.929688 196.867188 53.03125 194.96875 53.03125 192.621094 C 53.03125 190.269531 54.929688 188.371094 57.277344 188.371094 C 57.710938 188.371094 58.128906 188.445312 58.507812 188.554688 L 63.675781 178.085938 C 62.355469 177.199219 61.453125 175.753906 61.289062 174.089844 L 57.027344 173.945312 C 56.71875 174.742188 55.960938 175.300781 55.054688 175.300781 C 54.820312 175.300781 54.605469 175.265625 54.386719 175.195312 L 50.972656 179.625 C 52.039062 180.671875 52.691406 182.117188 52.691406 183.726562 C 52.691406 186.90625 50.105469 189.492188 46.925781 189.492188 C 44.25 189.492188 41.992188 187.648438 41.34375 185.171875 L 37.386719 185.695312 C 37.3125 187.957031 35.453125 189.78125 33.175781 189.78125 C 30.84375 189.78125 28.964844 187.902344 28.964844 185.570312 C 28.964844 183.363281 30.664062 181.558594 32.832031 181.375 L 33.210938 176.75 C 32.453125 176.421875 31.929688 175.664062 31.929688 174.777344 C 31.929688 173.601562 32.886719 172.628906 34.078125 172.628906 C 34.351562 172.628906 34.585938 172.679688 34.820312 172.753906 L 42.898438 162.8125 C 42.699219 162.484375 42.570312 162.089844 42.570312 161.671875 C 42.570312 161.09375 42.804688 160.570312 43.167969 160.191406 L 41.921875 157.769531 C 41.289062 158.003906 40.621094 158.128906 39.914062 158.128906 C 38.902344 158.128906 37.945312 157.859375 37.132812 157.40625 L 32.273438 164.148438 C 32.777344 164.710938 33.085938 165.46875 33.085938 166.300781 C 33.085938 168.070312 31.640625 169.519531 29.871094 169.519531 C 29.507812 169.519531 29.148438 169.464844 28.820312 169.335938 L 23.746094 177.617188 C 24.902344 178.554688 25.625 179.984375 25.625 181.59375 C 25.625 184.429688 23.328125 186.726562 20.492188 186.726562 C 17.65625 186.726562 15.359375 184.429688 15.359375 181.59375 C 15.359375 179.28125 16.898438 177.328125 18.992188 176.675781 L 18.59375 174.234375 C 18.558594 174.234375 18.539062 174.234375 18.503906 174.234375 C 15.867188 174.234375 13.734375 172.101562 13.734375 169.464844 C 13.734375 166.84375 15.847656 164.710938 18.46875 164.691406 L 18.757812 162.578125 C 15.703125 161.835938 13.425781 159.070312 13.425781 155.78125 C 13.425781 151.929688 16.554688 148.800781 20.402344 148.800781 C 23.601562 148.800781 26.308594 150.953125 27.125 153.898438 L 34.152344 152.652344 C 34.152344 152.542969 34.152344 152.453125 34.152344 152.34375 C 34.152344 151.367188 34.40625 150.445312 34.820312 149.632812 L 29.632812 146 C 29.054688 146.542969 28.28125 146.867188 27.429688 146.867188 C 25.640625 146.867188 24.179688 145.402344 24.179688 143.613281 C 24.179688 141.824219 25.640625 140.359375 27.429688 140.359375 C 29.21875 140.359375 30.683594 141.824219 30.683594 143.613281 C 30.683594 144.066406 30.59375 144.480469 30.429688 144.859375 L 35.617188 148.496094 C 36.355469 147.664062 37.351562 147.046875 38.453125 146.757812 L 38.433594 141.5 C 36.484375 141.171875 35 139.492188 35 137.449219 C 35 135.191406 36.84375 133.347656 39.101562 133.347656 C 40.4375 133.347656 41.613281 133.980469 42.355469 134.953125 L 48.914062 131.519531 C 48.75 131.03125 48.660156 130.527344 48.660156 129.984375 C 48.660156 127.398438 50.757812 125.285156 53.359375 125.285156 C 55.941406 125.285156 58.054688 127.378906 58.054688 129.984375 C 58.054688 131.699219 57.132812 133.21875 55.742188 134.03125 L 57.910156 139.382812 C 58.253906 139.3125 58.597656 139.257812 58.976562 139.257812 C 59.828125 139.257812 60.640625 139.492188 61.324219 139.90625 L 66.242188 133.941406 C 65.121094 132.785156 64.414062 131.210938 64.414062 129.476562 C 64.414062 125.953125 67.269531 123.078125 70.8125 123.078125 C 74.335938 123.078125 77.207031 125.933594 77.207031 129.476562 C 77.207031 131.050781 76.628906 132.496094 75.691406 133.597656 L 80.570312 138.734375 C 80.859375 138.589844 81.183594 138.515625 81.527344 138.515625 C 81.617188 138.515625 81.707031 138.515625 81.777344 138.535156 L 84.382812 132.910156 C 83.316406 132.171875 82.609375 130.941406 82.609375 129.53125 C 82.609375 127.273438 84.453125 125.429688 86.710938 125.429688 C 88.96875 125.429688 90.8125 127.273438 90.8125 129.53125 C 90.8125 130.039062 90.722656 130.527344 90.558594 130.960938 L 94.699219 133.363281 C 95.726562 132.007812 97.371094 131.121094 99.195312 131.121094 C 102.324219 131.121094 104.851562 133.652344 104.851562 136.78125 C 104.851562 137.539062 104.707031 138.261719 104.4375 138.914062 L 110.542969 142.332031 C 111.394531 141.226562 112.730469 140.503906 114.246094 140.503906 C 116.832031 140.503906 118.925781 142.601562 118.925781 145.1875 C 118.925781 146.542969 118.347656 147.769531 117.425781 148.621094 L 120.679688 153.410156 C 121.3125 153.105469 122.035156 152.921875 122.792969 152.921875 C 125.46875 152.921875 127.636719 155.09375 127.636719 157.769531 C 127.636719 160.445312 125.46875 162.613281 122.792969 162.613281 C 121.476562 162.613281 120.265625 162.089844 119.398438 161.21875 L 114.121094 165.234375 C 114.285156 165.613281 114.375 166.027344 114.375 166.464844 C 114.375 168.144531 113.019531 169.5 111.339844 169.5 C 111.140625 169.5 110.941406 169.480469 110.761719 169.445312 L 107.816406 175.988281 C 109.0625 176.804688 109.894531 178.214844 109.894531 179.804688 C 109.894531 181.46875 108.988281 182.929688 107.652344 183.726562 L 109.078125 187.34375 C 109.550781 187.214844 110.019531 187.160156 110.527344 187.160156 C 111.464844 187.160156 112.367188 187.394531 113.144531 187.792969 L 118.203125 180.347656 C 116.667969 179.0625 115.691406 177.128906 115.691406 174.960938 Z M 39.84375 146.613281 L 39.824219 141.515625 C 41.757812 141.191406 43.222656 139.492188 43.222656 137.46875 C 43.222656 137.035156 43.148438 136.601562 43.023438 136.203125 L 49.582031 132.765625 C 50.429688 133.941406 51.824219 134.703125 53.375 134.703125 C 53.753906 134.703125 54.117188 134.664062 54.476562 134.574219 L 56.648438 139.925781 C 55.308594 140.722656 54.40625 142.1875 54.40625 143.867188 C 54.40625 145.890625 55.726562 147.609375 57.550781 148.222656 L 56.574219 154.007812 C 56.449219 154.007812 56.320312 153.988281 56.175781 153.988281 C 52.597656 153.988281 49.707031 156.882812 49.707031 160.460938 C 49.707031 164.039062 52.597656 166.933594 56.175781 166.933594 C 59.574219 166.933594 62.355469 164.3125 62.628906 160.984375 L 66.367188 160.878906 C 66.675781 161.691406 67.453125 162.269531 68.371094 162.269531 C 69.023438 162.269531 69.601562 161.980469 70 161.511719 L 74.894531 163.460938 C 74.839844 163.75 74.804688 164.039062 74.804688 164.328125 C 74.804688 166.609375 76.664062 168.46875 78.941406 168.46875 C 81.21875 168.46875 83.082031 166.609375 83.082031 164.328125 C 83.082031 163.335938 82.71875 162.414062 82.140625 161.691406 L 87.324219 155.6875 C 88.230469 156.285156 89.3125 156.648438 90.46875 156.648438 C 93.597656 156.648438 96.125 154.117188 96.125 150.988281 C 96.125 147.863281 93.597656 145.332031 90.46875 145.332031 C 89.296875 145.332031 88.195312 145.691406 87.289062 146.308594 L 83.421875 141.878906 C 83.621094 141.554688 83.730469 141.15625 83.730469 140.738281 C 83.730469 140.105469 83.460938 139.527344 83.027344 139.113281 L 85.609375 133.492188 C 85.953125 133.582031 86.3125 133.636719 86.675781 133.636719 C 87.941406 133.636719 89.078125 133.058594 89.820312 132.152344 L 93.957031 134.558594 C 93.667969 135.242188 93.503906 135.984375 93.503906 136.78125 C 93.503906 139.90625 96.035156 142.4375 99.160156 142.4375 C 99.46875 142.4375 99.773438 142.421875 100.0625 142.367188 L 101.691406 147.988281 C 101.074219 148.402344 100.679688 149.089844 100.679688 149.886719 C 100.679688 150.808594 101.21875 151.585938 101.980469 151.964844 L 101.3125 156.773438 C 99.105469 156.847656 97.335938 158.652344 97.335938 160.878906 C 97.335938 161.128906 97.355469 161.382812 97.40625 161.636719 L 91.535156 163.804688 C 91.136719 163.300781 90.523438 162.992188 89.835938 162.992188 C 88.628906 162.992188 87.652344 163.96875 87.652344 165.179688 C 87.652344 165.757812 87.867188 166.265625 88.230469 166.660156 L 85.25 172.085938 C 84.941406 171.996094 84.617188 171.941406 84.289062 171.941406 C 82.449219 171.941406 80.964844 173.421875 80.964844 175.265625 C 80.964844 177.109375 82.449219 178.59375 84.289062 178.59375 C 86.132812 178.59375 87.613281 177.109375 87.613281 175.265625 L 95.855469 173.511719 C 96.054688 173.839844 96.304688 174.109375 96.632812 174.289062 L 94.210938 185.859375 C 94.011719 185.839844 93.792969 185.824219 93.578125 185.824219 C 91.769531 185.824219 90.125 186.582031 88.953125 187.792969 L 84.472656 184.359375 C 84.542969 184.140625 84.597656 183.890625 84.597656 183.652344 C 84.597656 182.441406 83.621094 181.46875 82.410156 181.46875 C 81.199219 181.46875 80.226562 182.441406 80.226562 183.652344 C 80.226562 183.871094 80.261719 184.070312 80.316406 184.269531 L 77.480469 186.238281 C 76.285156 184.867188 74.535156 183.996094 72.582031 183.996094 C 69.003906 183.996094 66.113281 186.890625 66.113281 190.46875 C 66.113281 190.542969 66.113281 190.613281 66.113281 190.667969 L 61.273438 191.335938 C 61 190.453125 60.421875 189.675781 59.683594 189.148438 L 64.847656 178.683594 C 65.390625 178.863281 65.988281 178.972656 66.601562 178.972656 C 69.582031 178.972656 72.003906 176.550781 72.003906 173.566406 C 72.003906 170.585938 69.582031 168.179688 66.601562 168.179688 C 63.929688 168.179688 61.707031 170.132812 61.273438 172.699219 L 57.007812 172.554688 C 56.738281 171.6875 55.941406 171.074219 55.003906 171.074219 C 53.847656 171.074219 52.886719 172.011719 52.886719 173.1875 C 52.886719 173.621094 53.015625 174 53.230469 174.34375 L 49.816406 178.773438 C 48.949219 178.25 47.9375 177.960938 46.871094 177.960938 C 43.691406 177.960938 41.109375 180.546875 41.109375 183.726562 C 41.109375 183.746094 41.109375 183.78125 41.109375 183.800781 L 37.152344 184.324219 C 36.71875 182.929688 35.578125 181.828125 34.152344 181.46875 L 34.53125 176.839844 C 35.472656 176.605469 36.15625 175.753906 36.15625 174.761719 C 36.15625 174.34375 36.03125 173.945312 35.832031 173.621094 L 43.910156 163.679688 C 44.144531 163.769531 44.394531 163.804688 44.648438 163.804688 C 45.84375 163.804688 46.800781 162.847656 46.800781 161.65625 C 46.800781 160.480469 45.84375 159.503906 44.648438 159.503906 C 44.539062 159.503906 44.433594 159.503906 44.34375 159.519531 L 43.09375 157.097656 C 44.613281 156.070312 45.625 154.316406 45.625 152.328125 C 45.625 149.144531 43.042969 146.558594 39.859375 146.558594 C 39.824219 146.558594 39.808594 146.558594 39.789062 146.558594 Z M 57.929688 154.242188 L 58.90625 148.457031 C 58.921875 148.457031 58.960938 148.457031 58.976562 148.457031 C 60.640625 148.457031 62.085938 147.574219 62.898438 146.253906 L 69.582031 149.019531 C 69.492188 149.398438 69.4375 149.777344 69.4375 150.195312 C 69.4375 152.832031 71.570312 154.964844 74.207031 154.964844 C 76.847656 154.964844 78.980469 152.832031 78.980469 150.195312 C 78.980469 148.910156 78.472656 147.753906 77.660156 146.886719 L 80.785156 142.855469 C 81.019531 142.945312 81.273438 142.980469 81.527344 142.980469 C 81.832031 142.980469 82.121094 142.925781 82.394531 142.800781 L 86.261719 147.230469 C 85.355469 148.222656 84.816406 149.5625 84.816406 151.007812 C 84.816406 152.472656 85.375 153.792969 86.277344 154.804688 L 81.09375 160.804688 C 80.460938 160.425781 79.738281 160.207031 78.941406 160.207031 C 77.441406 160.207031 76.140625 161.003906 75.402344 162.195312 L 70.503906 160.246094 C 70.503906 160.207031 70.503906 160.171875 70.503906 160.136719 C 70.503906 158.941406 69.546875 157.984375 68.355469 157.984375 C 67.398438 157.984375 66.582031 158.617188 66.3125 159.503906 L 62.574219 159.613281 C 62.230469 157.027344 60.367188 154.949219 57.910156 154.242188 Z M 74.679688 134.574219 L 79.558594 139.710938 C 79.394531 140.015625 79.285156 140.378906 79.285156 140.757812 C 79.285156 141.210938 79.429688 141.644531 79.664062 142.003906 L 76.539062 146.035156 C 75.851562 145.636719 75.039062 145.421875 74.191406 145.421875 C 72.457031 145.421875 70.9375 146.363281 70.105469 147.734375 L 63.421875 144.953125 C 63.511719 144.609375 63.546875 144.226562 63.546875 143.847656 C 63.546875 142.671875 63.097656 141.605469 62.375 140.792969 L 67.289062 134.828125 C 68.300781 135.496094 69.492188 135.875 70.792969 135.875 C 72.257812 135.875 73.59375 135.386719 74.679688 134.558594 Z M 103.027344 147.644531 L 101.402344 142.003906 C 102.339844 141.605469 103.136719 140.957031 103.730469 140.144531 L 109.839844 143.558594 C 109.640625 144.066406 109.53125 144.625 109.53125 145.203125 C 109.53125 145.601562 109.585938 145.980469 109.675781 146.363281 L 104.726562 148.441406 C 104.308594 147.953125 103.714844 147.644531 103.027344 147.625 Z M 91.933594 198.421875 L 90.976562 204.351562 C 89.710938 204.496094 88.71875 205.582031 88.71875 206.882812 C 88.71875 208.078125 89.53125 209.070312 90.632812 209.359375 L 90.722656 213.84375 C 90.6875 213.859375 90.632812 213.878906 90.597656 213.898438 L 87.433594 211.257812 C 87.578125 210.949219 87.652344 210.605469 87.652344 210.246094 C 87.652344 208.945312 86.65625 207.878906 85.394531 207.75 L 84.851562 204.75 C 86.65625 204.136719 87.957031 202.417969 87.957031 200.410156 C 87.957031 199.582031 87.742188 198.804688 87.34375 198.132812 L 89.097656 196.742188 C 89.875 197.519531 90.847656 198.117188 91.953125 198.40625 Z M 36.011719 156.609375 L 31.152344 163.355469 C 30.753906 163.191406 30.320312 163.082031 29.871094 163.082031 C 28.097656 163.082031 26.652344 164.527344 26.652344 166.300781 C 26.652344 167.203125 27.03125 168.035156 27.648438 168.613281 L 22.570312 176.894531 C 21.9375 176.605469 21.234375 176.460938 20.492188 176.460938 C 20.4375 176.460938 20.402344 176.460938 20.347656 176.460938 L 19.949219 174.019531 C 21.882812 173.40625 23.273438 171.597656 23.273438 169.480469 C 23.273438 167.3125 21.828125 165.488281 19.84375 164.910156 L 20.132812 162.792969 C 20.222656 162.792969 20.3125 162.792969 20.421875 162.792969 C 24.269531 162.792969 27.394531 159.667969 27.394531 155.816406 C 27.394531 155.636719 27.394531 155.472656 27.375 155.292969 L 34.40625 154.0625 C 34.710938 155.054688 35.273438 155.941406 36.011719 156.628906 Z M 41.289062 170.675781 C 41.289062 168.414062 43.132812 166.570312 45.390625 166.570312 C 47.648438 166.570312 49.492188 168.414062 49.492188 170.675781 C 49.492188 172.933594 47.648438 174.777344 45.390625 174.777344 C 43.132812 174.777344 41.289062 172.933594 41.289062 170.675781 Z M 45.679688 143.144531 C 45.679688 141.949219 46.636719 140.992188 47.828125 140.992188 C 49.023438 140.992188 49.980469 141.949219 49.980469 143.144531 C 49.980469 144.320312 49.023438 145.292969 47.828125 145.292969 C 46.65625 145.292969 45.679688 144.335938 45.679688 143.144531 Z M 45.679688 143.144531 " clip-rule="evenodd"/></clipPath><linearGradient x1="39.985145" gradientTransform="matrix(1.806808, 0, 0, 1.807704, 13.445752, 123.096187)" y1="-0.154466" x2="39.673595" gradientUnits="userSpaceOnUse" y2="52.365352" id="ab6dd44784"><stop stop-opacity="1" stop-color="rgb(96.499634%, 43.899536%, 38.398743%)" offset="0"/><stop stop-opacity="1" stop-color="rgb(96.516418%, 43.814087%, 38.548279%)" offset="0.00726688"/><stop stop-opacity="1" stop-color="rgb(96.533203%, 43.728638%, 38.697815%)" offset="0.125"/><stop stop-opacity="1" stop-color="rgb(96.554565%, 43.618774%, 38.88855%)" offset="0.140625"/><stop stop-opacity="1" stop-color="rgb(96.59729%, 43.399048%, 39.27002%)" offset="0.15625"/><stop stop-opacity="1" stop-color="rgb(96.640015%, 43.180847%, 39.651489%)" offset="0.171875"/><stop stop-opacity="1" stop-color="rgb(96.682739%, 42.961121%, 40.034485%)" offset="0.1875"/><stop stop-opacity="1" stop-color="rgb(96.72699%, 42.74292%, 40.415955%)" offset="0.203125"/><stop stop-opacity="1" stop-color="rgb(96.769714%, 42.523193%, 40.797424%)" offset="0.21875"/><stop stop-opacity="1" stop-color="rgb(96.812439%, 42.303467%, 41.18042%)" offset="0.234375"/><stop stop-opacity="1" stop-color="rgb(96.855164%, 42.085266%, 41.56189%)" offset="0.25"/><stop stop-opacity="1" stop-color="rgb(96.899414%, 41.86554%, 41.943359%)" offset="0.265625"/><stop stop-opacity="1" stop-color="rgb(96.942139%, 41.647339%, 42.326355%)" offset="0.28125"/><stop stop-opacity="1" stop-color="rgb(96.984863%, 41.427612%, 42.707825%)" offset="0.296875"/><stop stop-opacity="1" stop-color="rgb(97.027588%, 41.209412%, 43.089294%)" offset="0.3125"/><stop stop-opacity="1" stop-color="rgb(97.070312%, 40.989685%, 43.470764%)" offset="0.328125"/><stop stop-opacity="1" stop-color="rgb(97.114563%, 40.769958%, 43.85376%)" offset="0.34375"/><stop stop-opacity="1" stop-color="rgb(97.157288%, 40.551758%, 44.235229%)" offset="0.359375"/><stop stop-opacity="1" stop-color="rgb(97.200012%, 40.332031%, 44.616699%)" offset="0.375"/><stop stop-opacity="1" stop-color="rgb(97.242737%, 40.113831%, 44.999695%)" offset="0.390625"/><stop stop-opacity="1" stop-color="rgb(97.286987%, 39.894104%, 45.381165%)" offset="0.40625"/><stop stop-opacity="1" stop-color="rgb(97.329712%, 39.675903%, 45.762634%)" offset="0.421875"/><stop stop-opacity="1" stop-color="rgb(97.372437%, 39.456177%, 46.14563%)" offset="0.4375"/><stop stop-opacity="1" stop-color="rgb(97.415161%, 39.237976%, 46.5271%)" offset="0.453125"/><stop stop-opacity="1" stop-color="rgb(97.457886%, 39.01825%, 46.908569%)" offset="0.46875"/><stop stop-opacity="1" stop-color="rgb(97.502136%, 38.798523%, 47.291565%)" offset="0.484375"/><stop stop-opacity="1" stop-color="rgb(97.544861%, 38.580322%, 47.673035%)" offset="0.5"/><stop stop-opacity="1" stop-color="rgb(97.587585%, 38.360596%, 48.054504%)" offset="0.515625"/><stop stop-opacity="1" stop-color="rgb(97.63031%, 38.142395%, 48.4375%)" offset="0.53125"/><stop stop-opacity="1" stop-color="rgb(97.674561%, 37.922668%, 48.81897%)" offset="0.546875"/><stop stop-opacity="1" stop-color="rgb(97.717285%, 37.704468%, 49.200439%)" offset="0.5625"/><stop stop-opacity="1" stop-color="rgb(97.76001%, 37.484741%, 49.581909%)" offset="0.578125"/><stop stop-opacity="1" stop-color="rgb(97.802734%, 37.265015%, 49.964905%)" offset="0.59375"/><stop stop-opacity="1" stop-color="rgb(97.845459%, 37.046814%, 50.346375%)" offset="0.609375"/><stop stop-opacity="1" stop-color="rgb(97.889709%, 36.827087%, 50.727844%)" offset="0.625"/><stop stop-opacity="1" stop-color="rgb(97.932434%, 36.608887%, 51.11084%)" offset="0.640625"/><stop stop-opacity="1" stop-color="rgb(97.975159%, 36.38916%, 51.49231%)" offset="0.65625"/><stop stop-opacity="1" stop-color="rgb(98.017883%, 36.170959%, 51.873779%)" offset="0.671875"/><stop stop-opacity="1" stop-color="rgb(98.062134%, 35.951233%, 52.256775%)" offset="0.6875"/><stop stop-opacity="1" stop-color="rgb(98.104858%, 35.733032%, 52.638245%)" offset="0.703125"/><stop stop-opacity="1" stop-color="rgb(98.147583%, 35.513306%, 53.019714%)" offset="0.71875"/><stop stop-opacity="1" stop-color="rgb(98.190308%, 35.293579%, 53.40271%)" offset="0.734375"/><stop stop-opacity="1" stop-color="rgb(98.233032%, 35.075378%, 53.78418%)" offset="0.75"/><stop stop-opacity="1" stop-color="rgb(98.277283%, 34.855652%, 54.165649%)" offset="0.765625"/><stop stop-opacity="1" stop-color="rgb(98.320007%, 34.637451%, 54.547119%)" offset="0.78125"/><stop stop-opacity="1" stop-color="rgb(98.362732%, 34.417725%, 54.930115%)" offset="0.796875"/><stop stop-opacity="1" stop-color="rgb(98.405457%, 34.199524%, 55.311584%)" offset="0.8125"/><stop stop-opacity="1" stop-color="rgb(98.449707%, 33.979797%, 55.693054%)" offset="0.828125"/><stop stop-opacity="1" stop-color="rgb(98.492432%, 33.760071%, 56.07605%)" offset="0.84375"/><stop stop-opacity="1" stop-color="rgb(98.535156%, 33.54187%, 56.45752%)" offset="0.859375"/><stop stop-opacity="1" stop-color="rgb(98.577881%, 33.322144%, 56.838989%)" offset="0.875"/><stop stop-opacity="1" stop-color="rgb(98.620605%, 33.103943%, 57.221985%)" offset="0.890625"/><stop stop-opacity="1" stop-color="rgb(98.664856%, 32.884216%, 57.603455%)" offset="0.90625"/><stop stop-opacity="1" stop-color="rgb(98.707581%, 32.666016%, 57.984924%)" offset="0.921875"/><stop stop-opacity="1" stop-color="rgb(98.750305%, 32.446289%, 58.36792%)" offset="0.9375"/><stop stop-opacity="1" stop-color="rgb(98.7854%, 32.267761%, 58.679199%)" offset="0.992733"/><stop stop-opacity="1" stop-color="rgb(98.799133%, 32.199097%, 58.799744%)" offset="1"/></linearGradient></defs><g clip-path="url(#a0cdb37cd7)"><g clip-path="url(#7c04b9150d)"><path fill="url(#ab6dd44784)" d="M 13.445312 123.078125 L 13.445312 217.332031 L 129.695312 217.332031 L 129.695312 123.078125 Z M 13.445312 123.078125 " fill-rule="nonzero"/></g></g><g fill="#000000" fill-opacity="1"><g transform="translate(144.47965, 158.919921)"><g><path d="M 12.78125 -22.796875 C 14.507812 -22.796875 16.046875 -22.484375 17.390625 -21.859375 C 18.734375 -21.242188 19.8125 -20.394531 20.625 -19.3125 L 18.328125 -17.640625 C 17.660156 -18.535156 16.832031 -19.207031 15.84375 -19.65625 C 14.863281 -20.113281 13.84375 -20.34375 12.78125 -20.34375 C 10.414062 -20.34375 8.421875 -19.441406 6.796875 -17.640625 C 5.171875 -15.835938 4.335938 -13.660156 4.296875 -11.109375 C 4.296875 -8.472656 5.101562 -6.28125 6.71875 -4.53125 C 8.332031 -2.789062 10.351562 -1.910156 12.78125 -1.890625 C 15.4375 -1.890625 17.582031 -2.921875 19.21875 -4.984375 L 21.1875 -3.328125 C 19.238281 -0.734375 16.4375 0.5625 12.78125 0.5625 C 9.53125 0.5625 6.84375 -0.554688 4.71875 -2.796875 C 2.59375 -5.035156 1.507812 -7.804688 1.46875 -11.109375 C 1.46875 -14.421875 2.539062 -17.1875 4.6875 -19.40625 C 6.832031 -21.625 9.53125 -22.753906 12.78125 -22.796875 Z M 12.78125 -22.796875 "/></g></g></g><g fill="#000000" fill-opacity="1"><g transform="translate(170.977001, 158.919921)"><g><path d="M 16.734375 -22.21875 L 16.734375 -19.78125 L 5.40625 -19.78125 L 5.40625 -12.8125 L 15.984375 -12.8125 L 15.984375 -10.359375 L 5.40625 -10.359375 L 5.40625 -2.453125 L 17.296875 -2.453125 L 17.296875 0 L 2.765625 0 L 2.765625 -22.21875 Z M 16.734375 -22.21875 "/></g></g></g><g fill="#000000" fill-opacity="1"><g transform="translate(193.989558, 158.919921)"><g><path d="M 8.828125 -22.21875 C 11.734375 -22.21875 13.867188 -21.738281 15.234375 -20.78125 C 16.609375 -19.820312 17.296875 -18.273438 17.296875 -16.140625 C 17.296875 -14.566406 16.828125 -13.269531 15.890625 -12.25 C 14.960938 -11.238281 13.578125 -10.566406 11.734375 -10.234375 L 18.046875 0 L 14.8125 0 L 8.796875 -9.984375 L 5.40625 -9.984375 L 5.40625 0 L 2.765625 0 L 2.765625 -22.21875 Z M 8.53125 -12.4375 C 10.601562 -12.4375 12.109375 -12.722656 13.046875 -13.296875 C 13.992188 -13.867188 14.46875 -14.804688 14.46875 -16.109375 C 14.46875 -17.359375 14.039062 -18.28125 13.1875 -18.875 C 12.34375 -19.476562 11.035156 -19.78125 9.265625 -19.78125 L 5.40625 -19.78125 L 5.40625 -12.4375 Z M 8.53125 -12.4375 "/></g></g></g><g fill="#000000" fill-opacity="1"><g transform="translate(217.567212, 158.919921)"><g><path d="M 16.734375 -22.21875 L 16.734375 -19.78125 L 5.40625 -19.78125 L 5.40625 -12.8125 L 15.984375 -12.8125 L 15.984375 -10.359375 L 5.40625 -10.359375 L 5.40625 -2.453125 L 17.296875 -2.453125 L 17.296875 0 L 2.765625 0 L 2.765625 -22.21875 Z M 16.734375 -22.21875 "/></g></g></g><g fill="#000000" fill-opacity="1"><g transform="translate(240.579768, 158.919921)"><g><path d="M 9.546875 -22.21875 C 11.890625 -22.21875 13.695312 -21.742188 14.96875 -20.796875 C 16.25 -19.847656 16.898438 -18.503906 16.921875 -16.765625 C 16.921875 -15.484375 16.566406 -14.414062 15.859375 -13.5625 C 15.160156 -12.707031 14.21875 -12.097656 13.03125 -11.734375 L 13.03125 -11.671875 C 14.46875 -11.546875 15.660156 -10.960938 16.609375 -9.921875 C 17.566406 -8.890625 18.046875 -7.65625 18.046875 -6.21875 C 18.046875 -4.25 17.300781 -2.722656 15.8125 -1.640625 C 14.332031 -0.566406 12.222656 -0.0195312 9.484375 0 L 2.765625 0 L 2.765625 -22.21875 Z M 9.171875 -12.8125 C 10.773438 -12.8125 11.992188 -13.097656 12.828125 -13.671875 C 13.671875 -14.242188 14.09375 -15.160156 14.09375 -16.421875 C 14.09375 -18.617188 12.546875 -19.738281 9.453125 -19.78125 L 5.40625 -19.78125 L 5.40625 -12.8125 Z M 9.984375 -2.453125 C 11.578125 -2.453125 12.847656 -2.800781 13.796875 -3.5 C 14.742188 -4.195312 15.21875 -5.132812 15.21875 -6.3125 C 15.21875 -7.644531 14.75 -8.648438 13.8125 -9.328125 C 12.875 -10.015625 11.585938 -10.359375 9.953125 -10.359375 L 5.40625 -10.359375 L 5.40625 -2.453125 Z M 9.984375 -2.453125 "/></g></g></g><g fill="#000000" fill-opacity="1"><g transform="translate(264.753923, 158.919921)"><g><path d="M 8.828125 -22.21875 C 11.734375 -22.21875 13.867188 -21.738281 15.234375 -20.78125 C 16.609375 -19.820312 17.296875 -18.273438 17.296875 -16.140625 C 17.296875 -14.566406 16.828125 -13.269531 15.890625 -12.25 C 14.960938 -11.238281 13.578125 -10.566406 11.734375 -10.234375 L 18.046875 0 L 14.8125 0 L 8.796875 -9.984375 L 5.40625 -9.984375 L 5.40625 0 L 2.765625 0 L 2.765625 -22.21875 Z M 8.53125 -12.4375 C 10.601562 -12.4375 12.109375 -12.722656 13.046875 -13.296875 C 13.992188 -13.867188 14.46875 -14.804688 14.46875 -16.109375 C 14.46875 -17.359375 14.039062 -18.28125 13.1875 -18.875 C 12.34375 -19.476562 11.035156 -19.78125 9.265625 -19.78125 L 5.40625 -19.78125 L 5.40625 -12.4375 Z M 8.53125 -12.4375 "/></g></g></g><g fill="#000000" fill-opacity="1"><g transform="translate(288.331577, 158.919921)"><g><path d="M 5.3125 -22.21875 L 5.3125 -8.859375 C 5.3125 -6.597656 5.789062 -4.878906 6.75 -3.703125 C 7.707031 -2.535156 9.140625 -1.929688 11.046875 -1.890625 C 12.953125 -1.910156 14.378906 -2.507812 15.328125 -3.6875 C 16.285156 -4.875 16.773438 -6.554688 16.796875 -8.734375 L 16.796875 -22.21875 L 19.4375 -22.21875 L 19.4375 -8.375 C 19.4375 -5.550781 18.703125 -3.359375 17.234375 -1.796875 C 15.765625 -0.242188 13.703125 0.539062 11.046875 0.5625 C 8.429688 0.5625 6.382812 -0.222656 4.90625 -1.796875 C 3.4375 -3.378906 2.691406 -5.582031 2.671875 -8.40625 L 2.671875 -22.21875 Z M 5.3125 -22.21875 "/></g></g></g><g fill="#000000" fill-opacity="1"><g transform="translate(314.828927, 158.919921)"><g><path d="M 6.6875 -22.21875 L 14.21875 -4.796875 L 14.28125 -4.796875 L 21.875 -22.21875 L 25.703125 -22.21875 L 25.703125 0 L 23.078125 0 L 23.078125 -18.640625 L 23.015625 -18.640625 L 15.03125 0 L 13.4375 0 L 5.46875 -18.640625 L 5.40625 -18.640625 L 5.40625 0 L 2.765625 0 L 2.765625 -22.21875 Z M 6.6875 -22.21875 "/></g></g></g><path stroke-linecap="round" transform="matrix(0.750041, -0.00301224, 0.00301206, 0.749994, 144.586226, 170.78019)" fill="none" stroke-linejoin="miter" d="M 0.497587 0.498208 L 248.499676 0.499474 " stroke="#545454" stroke-width="1" stroke-opacity="1" stroke-miterlimit="4"/><g fill="#545454" fill-opacity="1"><g transform="translate(147.960932, 198.311663)"><g><path d="M 6.03125 -15.578125 L 10.1875 -4.65625 L 14.390625 -15.578125 L 18.5625 -15.578125 L 18.5625 0 L 15.921875 0 L 15.921875 -12.9375 L 15.890625 -12.9375 L 11.15625 0 L 9.21875 0 L 4.484375 -12.9375 L 4.4375 -12.9375 L 4.4375 0 L 1.796875 0 L 1.796875 -15.578125 Z M 6.03125 -15.578125 "/></g></g></g><g fill="#545454" fill-opacity="1"><g transform="translate(168.329297, 198.311663)"><g><path d="M 5.96875 -10.828125 C 7.476562 -10.828125 8.601562 -10.460938 9.34375 -9.734375 C 10.09375 -9.003906 10.46875 -7.863281 10.46875 -6.3125 L 10.46875 0 L 8.09375 0 L 8.09375 -1.453125 L 8.03125 -1.453125 C 7.3125 -0.304688 6.179688 0.265625 4.640625 0.265625 C 3.492188 0.265625 2.566406 -0.03125 1.859375 -0.625 C 1.148438 -1.21875 0.796875 -1.976562 0.796875 -2.90625 C 0.796875 -4.132812 1.304688 -5.050781 2.328125 -5.65625 C 3.359375 -6.269531 5.007812 -6.578125 7.28125 -6.578125 L 8.09375 -6.578125 L 8.09375 -6.890625 C 8.09375 -7.503906 7.875 -7.984375 7.4375 -8.328125 C 7 -8.671875 6.410156 -8.84375 5.671875 -8.84375 C 4.585938 -8.84375 3.648438 -8.476562 2.859375 -7.75 L 1.46875 -9.125 C 2.570312 -10.257812 4.070312 -10.828125 5.96875 -10.828125 Z M 3.4375 -3.109375 C 3.4375 -2.648438 3.617188 -2.300781 3.984375 -2.0625 C 4.359375 -1.832031 4.796875 -1.71875 5.296875 -1.71875 C 6.210938 -1.71875 6.878906 -1.941406 7.296875 -2.390625 C 7.722656 -2.835938 7.9375 -3.394531 7.9375 -4.0625 L 7.9375 -4.734375 L 7.171875 -4.734375 C 4.679688 -4.734375 3.4375 -4.191406 3.4375 -3.109375 Z M 3.4375 -3.109375 "/></g></g></g><g fill="#545454" fill-opacity="1"><g transform="translate(180.14119, 198.311663)"><g><path d="M 7.296875 -10.828125 C 7.523438 -10.828125 7.84375 -10.773438 8.25 -10.671875 L 8.25 -8.125 C 7.789062 -8.25 7.363281 -8.3125 6.96875 -8.3125 C 6.101562 -8.3125 5.414062 -8.054688 4.90625 -7.546875 C 4.394531 -7.035156 4.140625 -6.351562 4.140625 -5.5 L 4.140625 0 L 1.5 0 L 1.5 -10.5625 L 4.140625 -10.5625 L 4.140625 -8.890625 L 4.1875 -8.890625 C 4.476562 -9.503906 4.894531 -9.976562 5.4375 -10.3125 C 5.976562 -10.65625 6.597656 -10.828125 7.296875 -10.828125 Z M 7.296875 -10.828125 "/></g></g></g><g fill="#545454" fill-opacity="1"><g transform="translate(188.697662, 198.311663)"><g><path d="M 4.140625 -16.625 L 4.140625 -6.1875 L 8.203125 -10.5625 L 11.59375 -10.5625 L 7.0625 -5.765625 L 11.875 0 L 8.375 0 L 4.1875 -5.390625 L 4.140625 -5.390625 L 4.140625 0 L 1.5 0 L 1.5 -16.625 Z M 4.140625 -16.625 "/></g></g></g><g fill="#545454" fill-opacity="1"><g transform="translate(200.509555, 198.311663)"><g/></g></g><g fill="#545454" fill-opacity="1"><g transform="translate(207.020396, 198.311663)"><g><path d="M 6.1875 -6.53125 L 6.1875 -4.296875 L 0.75 -4.296875 L 0.75 -6.53125 Z M 6.1875 -6.53125 "/></g></g></g><g fill="#545454" fill-opacity="1"><g transform="translate(213.949164, 198.311663)"><g/></g></g><g fill="#545454" fill-opacity="1"><g transform="translate(220.460005, 198.311663)"><g><path d="M 4.4375 -15.578125 L 4.4375 0 L 1.671875 0 L 1.671875 -15.578125 Z M 4.4375 -15.578125 "/></g></g></g><g fill="#545454" fill-opacity="1"><g transform="translate(226.570302, 198.311663)"><g/></g></g></svg>